<svg width="470" height="471" xmlns="http://www.w3.org/2000/svg" xmlns:xlink="http://www.w3.org/1999/xlink" xml:space="preserve" overflow="hidden"><g transform="translate(-68 -25)"><g><g><g><g><path d="M303.5 74.8542C200.941 74.8245 117.776 157.941 117.747 260.5 117.717 363.059 200.833 446.224 303.393 446.253 405.952 446.283 489.116 363.167 489.146 260.607 489.146 260.588 489.146 260.568 489.146 260.549 489.2 158.046 406.149 74.9079 303.647 74.8542 303.598 74.8542 303.549 74.8542 303.5 74.8542ZM303.5 436.478C206.337 436.507 127.547 357.765 127.518 260.603 127.488 163.44 206.23 84.6499 303.393 84.6201 400.555 84.5903 479.345 163.332 479.375 260.495 479.375 260.518 479.375 260.541 479.375 260.564 479.278 357.665 400.602 436.366 303.5 436.492Z" fill="#535353" fill-rule="nonzero" fill-opacity="1"/><path d="M271.745 319.545 210.677 258.477 203.769 265.385 271.745 333.361 415.444 189.661 408.536 182.753 271.745 319.545Z" fill="#535353" fill-rule="nonzero" fill-opacity="1"/></g></g></g></g></g></svg>