<svg width="46" height="47" xmlns="http://www.w3.org/2000/svg" xmlns:xlink="http://www.w3.org/1999/xlink" xml:space="preserve" overflow="hidden"><g transform="translate(-1167 -73)"><path d="M40.9688 36.225 34.9792 30.2354C34.1646 29.4208 33.0625 29.1333 32.0083 29.325L29.9 27.2167C31.7688 24.8208 32.8708 21.7542 32.8708 18.4958 32.8708 10.5896 26.4021 4.12083 18.4958 4.12083 10.5896 4.12083 4.12083 10.5896 4.12083 18.4958 4.12083 26.4021 10.5896 32.8708 18.4958 32.8708 21.7542 32.8708 24.7729 31.7688 27.2167 29.9L29.325 32.0083C29.1333 33.0625 29.4208 34.1646 30.2354 34.9792L36.225 40.9688C36.8958 41.6396 37.7583 41.975 38.6208 41.975 39.4833 41.975 40.3458 41.6396 41.0167 40.9688 42.2625 39.6271 42.2625 37.5187 40.9688 36.225ZM18.4479 29.9479C12.1229 29.9479 6.94792 24.7729 6.94792 18.4479 6.94792 12.1229 12.1229 6.94792 18.4479 6.94792 24.7729 6.94792 29.9479 12.1229 29.9479 18.4479 29.9479 24.7729 24.7729 29.9479 18.4479 29.9479Z" transform="matrix(-1 0 0 1.02174 1213 73)"/></g></svg>