<svg width="404" height="404" xmlns="http://www.w3.org/2000/svg" xmlns:xlink="http://www.w3.org/1999/xlink" xml:space="preserve" overflow="hidden"><g transform="translate(-58 -12)"><g><g><g><g><path d="M260.5 54.9792C172.374 54.9537 100.912 126.374 100.887 214.5 100.861 302.626 172.281 374.088 260.408 374.113 348.534 374.139 419.995 302.719 420.021 214.592 420.021 214.576 420.021 214.559 420.021 214.542 420.067 126.464 348.704 55.0253 260.626 54.9792 260.584 54.9792 260.542 54.9792 260.5 54.9792ZM260.5 365.713C177.011 365.739 109.308 298.078 109.283 214.588 109.257 131.099 176.918 63.3964 260.408 63.3708 343.897 63.3452 411.599 131.006 411.625 214.496 411.625 214.516 411.625 214.535 411.625 214.555 411.542 297.992 343.937 365.617 260.5 365.726Z" fill="#535353" fill-rule="nonzero" fill-opacity="1"/><path d="M262.599 141.095 254.203 141.095 254.203 210.302 184.938 210.302 184.938 218.698 254.203 218.698 254.203 288.022 262.599 288.022 262.599 218.698 331.865 218.698 331.865 210.302 262.599 210.302 262.599 141.095Z" fill="#535353" fill-rule="nonzero" fill-opacity="1"/></g></g></g></g></g></svg>